<?xml version="1.0" encoding="utf-8"?>
<!-- Generator: Adobe Illustrator 21.0.2, SVG Export Plug-In . SVG Version: 6.00 Build 0)  -->
<svg xmlns="http://www.w3.org/2000/svg" xmlns:xlink="http://www.w3.org/1999/xlink" version="1.1" id="Layer_1" x="0px" y="0px" viewBox="0 0 100 100" enable-background="new 0 0 100 100" xml:space="preserve" width="512" height="512">
<g>
	<circle fill="#EFC84A" cx="50" cy="50" r="48"/>
	<path opacity="0.1" d="M76.8099976,32.7399902c-0.3400269-0.289978-0.7700195-0.4700317-1.25-0.4700317H24.4400024   c-1.0700073,0-1.9400024,0.8700562-1.9400024,1.9400024V65.789978c0,0.539978,0.2199707,1.0200195,0.5700073,1.3699951   L53.7502441,97.84021c23.5098877-1.8189697,42.2607422-20.564209,44.088623-44.0714722L77.0300293,32.9599609   C76.960022,32.8800049,76.8900146,32.8099976,76.8099976,32.7399902z"/>
	<g>
		<g>
			<path fill="#27A2DB" d="M75.5561523,32.2653503H24.4439716c-1.0736084,0-1.9439697,0.8703003-1.9439697,1.9439087V65.790741     c0,1.0736084,0.8703613,1.9439087,1.9439697,1.9439087h51.1121826c1.0734863,0,1.9438477-0.8703003,1.9438477-1.9439087     V34.209259C77.5,33.1356506,76.6296387,32.2653503,75.5561523,32.2653503z"/>
		</g>
		<g>
			<rect x="22.5000019" y="37.006424" fill="#3A556A" width="55" height="5.262939"/>
		</g>
		<g>
			<rect x="26.0922871" y="46.4632874" fill="#FFFFFF" width="14.75" height="2"/>
		</g>
		<g>
			<rect x="26.0922871" y="52.14151" fill="#FFFFFF" width="18.28125" height="2"/>
		</g>
		<g>
			<rect x="26.0922871" y="58.0970764" fill="#FFFFFF" width="21.6054688" height="2"/>
		</g>
		<g>
			<circle fill="#E56353" cx="64.6032715" cy="60.4992142" r="3.4105232"/>
		</g>
		<g>
			<circle fill="#FCD462" cx="70.5587006" cy="60.4992142" r="3.4105232"/>
		</g>
	</g>
</g>
</svg>
