<svg id="Capa_1" enable-background="new 0 0 512 512" height="512" viewBox="0 0 512 512" width="512" xmlns="http://www.w3.org/2000/svg"><g><path d="m416.26 512h-320.52c-17.242 0-31.22-13.977-31.22-31.22v-449.56c0-17.243 13.978-31.22 31.22-31.22h320.52c17.242 0 31.22 13.977 31.22 31.22v449.56c0 17.243-13.978 31.22-31.22 31.22z" fill="#e49542"/><path d="m97.821 468.397v-424.794c0-5.69 4.612-10.302 10.302-10.302h295.754c5.69 0 10.302 4.612 10.302 10.302v424.795c0 5.69-4.612 10.302-10.302 10.302h-295.754c-5.69-.001-10.302-4.613-10.302-10.303z" fill="#ecf4ff"/><path d="m416.26 0h-25.905c17.242 0 31.22 13.977 31.22 31.22v449.56c0 17.242-13.978 31.22-31.22 31.22h25.905c17.242 0 31.22-13.977 31.22-31.22v-449.56c0-17.243-13.978-31.22-31.22-31.22z" fill="#e28424"/><g><g><circle cx="339.252" cy="270.569" fill="#dd5790" r="20.813"/></g><g><circle cx="172.748" cy="410.016" fill="#dd5790" r="20.813"/></g></g><path d="m350.179 95.888 9.253-9.253c3.018-3.018 3.018-7.909 0-10.928-3.017-3.016-7.909-3.016-10.927 0l-9.254 9.254-9.254-9.254c-3.017-3.016-7.909-3.016-10.927 0-3.018 3.018-3.018 7.909 0 10.928l9.253 9.253-9.253 9.253c-3.018 3.018-3.018 7.909 0 10.928 1.509 1.508 3.486 2.263 5.463 2.263s3.955-.755 5.463-2.263l9.254-9.254 9.254 9.254c1.509 1.508 3.486 2.263 5.463 2.263s3.955-.755 5.463-2.263c3.018-3.018 3.018-7.909 0-10.928z" fill="#dd5790"/><g><path d="m339.252 396.93c-4.267 0-7.726-3.459-7.726-7.726v-35.382c0-1.478-1.202-2.68-2.68-2.68h-145.692c-9.998 0-18.133-8.135-18.133-18.133v-41.626c0-4.268 3.459-7.726 7.726-7.726s7.726 3.459 7.726 7.726v41.626c0 1.478 1.202 2.68 2.68 2.68h145.691c9.998 0 18.133 8.135 18.133 18.133v35.382c.001 4.267-3.458 7.726-7.725 7.726z" fill="#4073c8"/></g><path d="m364.487 153.756-19.772-19.773c-1.449-1.449-3.414-2.263-5.463-2.263s-4.015.814-5.463 2.263l-19.772 19.773c-3.018 3.018-3.018 7.909 0 10.928 3.017 3.016 7.909 3.016 10.927 0l6.583-6.583v29.217c0 1.478-1.202 2.68-2.68 2.68h-145.693c-9.998 0-18.133 8.135-18.133 18.133v41.627c0 4.268 3.459 7.726 7.726 7.726s7.726-3.459 7.726-7.726v-41.628c0-1.478 1.202-2.68 2.68-2.68h145.691c9.998 0 18.133-8.135 18.133-18.133v-29.217l6.582 6.583c1.509 1.508 3.486 2.263 5.463 2.263s3.955-.755 5.463-2.263c3.02-3.018 3.02-7.909.002-10.927z" fill="#4073c8"/><g><g><path d="m235.187 88.897h-104.065c-4.267 0-7.726-3.459-7.726-7.726 0-4.268 3.459-7.726 7.726-7.726h104.065c4.267 0 7.726 3.459 7.726 7.726 0 4.268-3.459 7.726-7.726 7.726z" fill="#9dc6fb"/></g><g><path d="m235.187 122.198h-104.065c-4.267 0-7.726-3.459-7.726-7.726 0-4.268 3.459-7.726 7.726-7.726h104.065c4.267 0 7.726 3.459 7.726 7.726s-3.459 7.726-7.726 7.726z" fill="#9dc6fb"/></g><g><path d="m193.409 155.499h-62.287c-4.267 0-7.726-3.459-7.726-7.726 0-4.268 3.459-7.726 7.726-7.726h62.287c4.267 0 7.726 3.459 7.726 7.726s-3.459 7.726-7.726 7.726z" fill="#9dc6fb"/></g></g><g><circle cx="172.748" cy="270.569" fill="#c8ea73" r="20.813"/></g><g><circle cx="339.252" cy="410.016" fill="#c8ea73" r="20.813"/></g></g></svg>